<?xml version="1.0" encoding="UTF-8"?>
<svg id="Layer_2" data-name="Layer 2" xmlns="http://www.w3.org/2000/svg" viewBox="0 0 1785.65 346.16">
  <defs>
    <style>
      .cls-1 {
        fill: #334bb9;
        stroke-width: 0px;
      }
    </style>
  </defs>
  <g id="Layer_2-2" data-name="Layer 2">
    <g>
      <g>
        <path class="cls-1" d="M62.77,152.99l-3.77-138.06c0-1.06.26-2.91.79-5.56,5.17,0,8.41,3.58,9.73,10.73,1.19,6.23,1.79,23.57,1.79,52.05s.99,72.34,2.98,131.61c1.99,59.27,2.98,93.73,2.98,103.4,1.19,2.38,1.79,4.41,1.79,6.06s-.76,3.77-2.28,6.36c-1.52,2.58-3.21,3.87-5.07,3.87-3.84,0-5.76-2.98-5.76-8.94l.4-9.34c0-41.72-1.33-88.27-3.97-139.65l-2.58.4-15.49-1.99c-13.51,0-23.11,1.66-28.81,4.97,0,15.76,1.16,39.2,3.48,70.32,2.32,31.12,3.48,54.56,3.48,70.32,0,4.11-1.39,6.16-4.17,6.16-3.45,0-5.66-1.55-6.65-4.67-.99-3.11-1.76-12.45-2.28-28.01-.53-15.56-.89-32.35-1.09-50.36-.2-18.01-.5-29.53-.89-34.57C2.45,131.86,0,70.02,0,12.54l6.56-3.18,5.36,4.37c-1.19,10.07-1.79,20.13-1.79,30.2l3.38,82.64-.4,16.09c0,5.43.53,10.2,1.59,14.3l47.68-3.18.4-.79Z"/>
        <path class="cls-1" d="M225.47,232.25l.4,25.63c0,22.91-2.98,39.8-8.94,50.66-2.52,4.5-6.16,8.31-10.93,11.42-4.77,3.11-10.93,4.67-18.48,4.67s-14.5-2.02-20.86-6.06-11.26-9.1-14.7-15.2c-3.45-6.09-6.46-13.18-9.04-21.26-2.58-8.08-4.4-15.69-5.46-22.85-3.05-18.8-6.03-30.92-8.94-36.35,0-21.58-1.36-53.87-4.07-96.84-2.72-42.97-4.07-75.26-4.07-96.84l-2.78-8.54c0-1.85.7-3.67,2.09-5.46,1.39-1.79,3.01-2.68,4.87-2.68,6.75,0,10.13,9.93,10.13,29.8l3.58,137.47c1.06,1.33,1.72,4.57,1.99,9.73,1.32,18.81,2.58,30.86,3.77,36.16-.53,3.18-.79,6.62-.79,10.33s1.29,9.93,3.87,18.67,5.96,17.35,10.13,25.83c4.17,8.48,9.37,15.76,15.59,21.85,6.22,6.09,11.79,9.14,16.69,9.14s8.54-.53,10.93-1.59c2.38-1.06,4.24-2.22,5.56-3.48,1.32-1.26,2.41-3.34,3.28-6.26.86-2.91,1.42-5.13,1.69-6.66.26-1.52.53-4.24.79-8.15.26-3.9.36-6.29.3-7.15-.07-.86-.1-2.09-.1-3.68l1.19-13.51v-46.29l-2.78-24.43-2.38-72.91v-5.16l-1.79-2.38c1.19-7.68,1.79-15.43,1.79-23.24l-3.77-69.13c0-2.12.96-3.74,2.88-4.87,1.92-1.12,3.94-1.69,6.06-1.69l6.95,6.56-1.19,3.18,1.19,3.18-2.78,24.43,3.97,73.3,1.99,70.72,1.39.4c-.27,1.86-.4,4.7-.4,8.54l1.19,28.61,1.19,1.19-1.19,1.19Z"/>
        <path class="cls-1" d="M371.88,294.83l1.19,14.7c0,7.95-3.45,11.92-10.33,11.92-4.77,0-8.01-5.1-9.73-15.3-.93-4.77-1.46-7.42-1.59-7.95-26.49-83.56-43.18-144.62-50.06-183.16-.27-1.19-.47-3.04-.6-5.56-.27-5.43-1.52-9.27-3.77-11.52l.79-1.99c-1.72-10.06-3.01-17.05-3.87-20.96-.86-3.9-1.82-8.31-2.88-13.21-1.86-8.61-4.24-16.35-7.15-23.24-.79,5.56-1.19,9.8-1.19,12.71s.26,5.17.79,6.75c-1.86,6.36-2.78,15.76-2.78,28.21v111.45c0,12.98.92,32.32,2.78,58.01,1.85,25.69,2.78,45.03,2.78,58.01l-2.78,3.18h-9.34l-1.19-3.18c.53-2.12.79-7.55.79-16.29l-4.57-141.64v-53.24l2.98-76.88-.4-8.54c0-3.44.89-5.73,2.68-6.85,1.79-1.12,4.1-1.69,6.95-1.69s5.33.83,7.45,2.48c2.12,1.66,3.18,4.27,3.18,7.85s.6,7.48,1.79,11.72c1.19,4.24,2.91,8.97,5.17,14.2,2.25,5.23,4,10,5.26,14.3,1.26,4.31,2.41,11.19,3.48,20.66,1.06,9.47,2.32,17.85,3.77,25.13,1.46,7.29,3.84,17.08,7.15,29.4,3.31,12.32,7.12,25.96,11.42,40.92,4.3,14.97,7.05,24.8,8.24,29.5,1.19,4.7,2.78,10.7,4.77,17.98,4.24,15.1,6.49,25.76,6.75,31.98,1.85,2.78,3.28,8.14,4.27,16.09.99,7.95,3.21,13.38,6.65,16.29,1.72-3.84,2.58-10.33,2.58-19.47l1.59-141.64-1.19-62.97,1.19-15.5c0-2.91-.4-4.63-1.19-5.17l1.19-3.38c0-16.69-.53-27.81-1.59-33.37,1.06-3.71,4.44-5.56,10.13-5.56,4.37,0,6.56,4.44,6.56,13.31-1.72,3.45-2.58,7.95-2.58,13.51l.4,13.71c0,5.83-.53,9.93-1.59,12.32l-1.19,128.53c0,2.52.26,6.16.79,10.93l-.79,1.79v51.25l.79,15.3c0,16.16-1.33,27.28-3.97,33.37v.79Z"/>
        <path class="cls-1" d="M432.87,257.48l.4-16.29c0-15.89-.93-34.37-2.78-55.42-1.86-21.06-2.98-34.17-3.38-39.33-1.19-2.51-1.86-19.5-1.99-50.96-.13-31.45-.43-48.9-.89-52.35-.47-3.44-1.59-7.55-3.38-12.32-1.79-4.77-2.68-8.54-2.68-11.32,0-6.49,10.2-9.73,30.59-9.73h1.99c10.33,0,21.45,5.7,33.37,17.08,11.92,11.39,19.7,21.65,23.34,30.79,3.64,9.14,6.06,20.1,7.25,32.88,1.19,12.78,2.02,24.47,2.48,35.06.46,10.6,1.36,17.28,2.68,20.06l-.79,10.93,1.19,1.99-1.19,3.38,1.19,1.99c-1.59,2.52-2.38,6.29-2.38,11.32s-.27,9.67-.79,13.91c-.53,4.24-1.06,7.55-1.59,9.93-.53,2.38-1.42,5.93-2.68,10.63-1.26,4.7-3.15,12.22-5.66,22.55-7.42,29.14-19.73,50.66-36.95,64.56-17.22,13.91-27.38,20.86-30.49,20.86s-6.29-.7-9.54-2.09c-3.25-1.39-5.07-3.41-5.46-6.06,3.84-4.9,5.96-10.33,6.36-16.29l1.79-35.76ZM434.06,28.83l3.58,67.54c0,17.48,1.02,43.41,3.08,77.77,2.05,34.37,3.08,57.61,3.08,69.73s-.27,25.46-.79,40.03l.79,1.59v11.52h1.99c10.2-5.43,19.2-13.21,27.02-23.34,7.81-10.13,13.87-20.73,18.18-31.78,4.3-11.06,7.85-23.14,10.63-36.25,4.37-21.45,6.56-42.25,6.56-62.38,0-79.33-21.85-118.99-65.56-118.99-5.43,0-8.28,1.52-8.54,4.57Z"/>
        <path class="cls-1" d="M580.87,304.76l24.43-1.39c12.71,0,19.07,2.19,19.07,6.56-2.25,3.97-6.29,6.52-12.12,7.65-5.83,1.12-11.46,1.69-16.89,1.69h-9.54c-12.19,0-19.2-.96-21.06-2.88-1.86-1.92-2.78-3.94-2.78-6.06l3.77-15.1v-.79c-1.06-5.43-1.59-11.39-1.59-17.88l1.99-41.52-2.38-87.01,1.99-80.85c0-4.9-.86-12.15-2.58-21.75-1.72-9.6-2.65-16.65-2.78-21.16l7.35-11.32,28.41-3.58,1.39,1.19c6.36,0,10.03.83,11.03,2.48.99,1.66,1.49,3.41,1.49,5.26,0,5.17-4.9,7.75-14.7,7.75l-10.93-.79c-5.96,0-8.94,1.59-8.94,4.77l3.18,69.13-1.99,50.86-.79.79,2.38,1.39,22.45-4.17c1.46,0,3.05.76,4.77,2.28,1.72,1.52,2.58,3.08,2.58,4.67,0,5.43-2.06,8.15-6.16,8.15l-9.34-.4c-10.33,0-15.5,2.58-15.5,7.75l2.98,34.17-1.39,2.38v82.64c1.46,1.72,2.19,5.5,2.19,11.32v3.77Z"/>
        <path class="cls-1" d="M676.62,172.85l3.38,133.89c0,3.97-.56,7.05-1.69,9.24-1.13,2.18-3.45,3.28-6.95,3.28s-5.26-4.7-5.26-14.1l1.59-72.91-3.18-65.95c0-30.2-.37-55.06-1.09-74.59-.73-19.53-1.19-32.54-1.39-39.04-.2-6.49-.37-11.39-.5-14.7-.66-10.46-1.86-19.2-3.58-26.22,2.51-3.84,6.02-5.76,10.53-5.76,9.67,0,18.38,2.25,26.12,6.75,7.75,4.5,13.94,10.4,18.57,17.68,9.54,15.23,14.3,30.79,14.3,46.68s-2.85,32.05-8.54,48.47c-7.15,20.79-16.29,33.51-27.41,38.14-3.58,1.46-6.03,2.98-7.35,4.57-2.25,2.38-4.77,3.91-7.55,4.57ZM671.05,17.9l4.77,139.06.79.79c2.78-.26,4.87-1.02,6.26-2.28,1.39-1.26,2.75-2.61,4.07-4.07,1.32-1.46,2.25-2.45,2.78-2.98,17.61-17.61,26.42-39.73,26.42-66.35,0-9.27-.4-16.69-1.19-22.25-.79-5.56-3.08-10.89-6.85-15.99-3.77-5.1-7.02-8.77-9.73-11.03-2.72-2.25-6.56-5.2-11.52-8.84-4.97-3.64-7.78-5.66-8.44-6.06h-7.35Z"/>
      </g>
      <g>
        <path class="cls-1" d="M1121.74,18.67l-.79-7.35c0-2.38,2.71-3.58,8.15-3.58,11.12,0,19.63,3.11,25.53,9.34,5.89,6.23,9.8,12.91,11.72,20.06,1.92,7.15,3.41,12.58,4.47,16.29,2.25,8.08,3.38,14.37,3.38,18.87,0,13.64-3.78,30.06-11.32,49.27-4.9,12.19-7.35,18.94-7.35,20.26,0,13.24,5.29,39.96,15.89,80.16,10.59,40.2,19.27,68.7,26.02,85.52,0,8.87-1.79,13.31-5.36,13.31-2.78,0-5.07-1.23-6.85-3.67-1.79-2.45-2.88-3.87-3.28-4.27-.79-10.59-4.27-25.33-10.43-44.2s-9.93-31.45-11.32-37.74c-1.39-6.29-3.87-19.1-7.45-38.44-3.58-19.33-6.75-34.17-9.54-44.5l-3.18-2.38-7.75,3.18v152.57l.79,10.13c0,5.43-2.45,8.14-7.35,8.14-1.99,0-3.64-.63-4.97-1.89-1.33-1.26-1.99-2.88-1.99-4.87l1.39-2.19,1.59-246.93V18.67ZM1133.07,20.66l-1.99,88.8c0,11.66.4,20.33,1.19,26.02h.79c1.99,0,5.53-2.78,10.63-8.34,5.1-5.56,8.61-10,10.53-13.31,1.92-3.31,3.48-8.81,4.67-16.49,1.19-7.68,1.79-14.07,1.79-19.17s-.37-10.43-1.09-15.99c-.73-5.56-1.89-11.59-3.48-18.08-1.59-6.49-4.11-11.89-7.55-16.19-3.45-4.3-7.48-6.46-12.12-6.46v-1.19l-3.38.4Z"/>
        <path class="cls-1" d="M1283.05,208.59l1.99,94.76c0,10.6-2.32,15.89-6.95,15.89-2.78,0-4.9-1.89-6.36-5.66-1.46-3.77-2.18-7.32-2.18-10.63l3.38-66.75c0-14.3-.96-35.92-2.88-64.86-1.92-28.94-2.88-50.69-2.88-65.26l.4-38.14c0-27.94-2.32-41.92-6.95-41.92l-23.04,2.38c-1.99,0-3.91-.63-5.76-1.89-1.86-1.26-2.78-2.95-2.78-5.07,0-2.78,9-5.43,27.02-7.95,18.01-2.51,32.31-3.77,42.91-3.77,1.99,0,3.91.7,5.76,2.09,1.85,1.39,2.78,3.01,2.78,4.87,0,3.97-2.58,5.96-7.75,5.96l-15.1-1.19c-4.64,0-7.48,1.39-8.54,4.17,1.99,17.08,2.98,34.7,2.98,52.84l-.6,49.27c0,32.05,1.92,55.1,5.76,69.13-.79,3.97-1.19,7.88-1.19,11.72Z"/>
        <path class="cls-1" d="M1435.42,197.66l4.57,106.08v4.37c0,3.18-.4,5.17-1.19,5.96-2.12,1.86-4.44,2.78-6.95,2.78s-4.57-.66-6.16-1.99c-1.59-1.32-2.38-2.98-2.38-4.97.79-1.59,1.19-3.18,1.19-4.77l-1.19-8.14v-40.33c0-3.58-7.15-6.65-21.46-9.24s-24.9-3.87-31.79-3.87c-2.65,0-5.03,4.94-7.15,14.8-2.12,9.87-4.17,20.69-6.16,32.48-1.99,11.79-3.97,19.14-5.96,22.05-6.36,0-10.53-1.66-12.52-4.97,4.24-6.09,8.31-20.92,12.22-44.5,3.91-23.57,7.05-40.69,9.44-51.35,2.38-10.66,6.66-33.8,12.81-69.43,6.16-35.62,10.33-58.44,12.51-68.44,2.19-10,3.87-17.38,5.07-22.15,1.19-4.77,2.71-10.4,4.57-16.89,4.37-15.63,8.28-23.44,11.72-23.44,4.24,0,7.05.96,8.44,2.88,1.39,1.92,2.58,6.43,3.58,13.51.99,7.09,1.99,16.09,2.98,27.02.99,10.93,1.89,20.96,2.68,30.1,2.51,28.61,4.07,47.41,4.67,56.42.6,9.01,1.82,15.5,3.67,19.47-.53,8.21-.79,15.27-.79,21.16s1.19,11.03,3.58,15.4ZM1368.67,232.23c11.39,3.84,25.1,5.76,41.12,5.76,3.31,0,5.76-.26,7.35-.79l1.99.79c2.51,0,3.77-1.26,3.77-3.77,0-56.68-5.3-117.8-15.89-183.36-.13-.79-.43-2.25-.89-4.37-.47-2.12-.7-3.77-.7-4.97-3.31,9.41-5.1,15.36-5.36,17.88l1.19,2.38c-.93.93-2.45,5.6-4.57,14.01-2.12,8.41-5.07,25.76-8.84,52.05-3.77,26.29-6.49,43.18-8.15,50.66-1.66,7.48-3.41,14.27-5.26,20.36-3.84,13.51-5.76,23.84-5.76,30.99v2.38Z"/>
        <path class="cls-1" d="M1519.25,316.86l-12.71-.4c-1.46,0-3.31.83-5.56,2.48-2.25,1.65-4.31,2.48-6.16,2.48s-3.74-.86-5.66-2.58c-1.92-1.72-2.88-3.71-2.88-5.96l2.38-18.48-3.97-115.42-4.17-170.05c0-2.78,1.79-4.17,5.36-4.17,5.17,0,7.75,2.45,7.75,7.35,0,62.64.66,102.34,1.99,119.09,1.32,16.76,1.99,27.12,1.99,31.09s-.27,9.27-.79,15.89l1.19,1.59c-.53,7.15-.79,14.4-.79,21.75s.7,21.42,2.09,42.21c1.39,20.79,2.22,35.56,2.48,44.3-1.06,1.59-1.59,4.3-1.59,8.14s.63,6.43,1.89,7.75c1.26,1.33,3.94,1.99,8.04,1.99s6.88-.86,8.34-2.58h15.1c3.71,1.86,5.56,3.97,5.56,6.36,0,5.3-1.86,7.95-5.56,7.95-.93,0-2.98-.53-6.16-1.59-1.33.53-4.04.79-8.14.79Z"/>
        <path class="cls-1" d="M1594.94,304.74l24.43-1.39c12.71,0,19.07,2.19,19.07,6.56-2.25,3.97-6.29,6.52-12.12,7.65-5.83,1.12-11.46,1.69-16.89,1.69h-9.54c-12.19,0-19.21-.96-21.06-2.88-1.86-1.92-2.78-3.94-2.78-6.06l3.77-15.1v-.79c-1.06-5.43-1.59-11.39-1.59-17.88l1.99-41.52-2.38-87.01,1.99-80.85c0-4.9-.86-12.15-2.58-21.75-1.72-9.6-2.65-16.65-2.78-21.16l7.35-11.32,28.41-3.58,1.39,1.19c6.36,0,10.03.83,11.03,2.48.99,1.66,1.49,3.41,1.49,5.26,0,5.17-4.9,7.75-14.7,7.75l-10.93-.79c-5.96,0-8.94,1.59-8.94,4.77l3.18,69.13-1.99,50.86-.79.79,2.38,1.39,22.45-4.17c1.46,0,3.04.76,4.77,2.28,1.72,1.52,2.58,3.08,2.58,4.67,0,5.43-2.05,8.15-6.16,8.15l-9.34-.4c-10.33,0-15.5,2.58-15.5,7.75l2.98,34.17-1.39,2.38v82.64c1.46,1.72,2.19,5.5,2.19,11.32v3.77Z"/>
        <path class="cls-1" d="M1777.5,294.8l1.19,14.7c0,7.95-3.45,11.92-10.33,11.92-4.77,0-8.01-5.1-9.73-15.3-.93-4.77-1.46-7.42-1.59-7.95-26.49-83.56-43.18-144.62-50.06-183.16-.27-1.19-.46-3.04-.6-5.56-.27-5.43-1.52-9.27-3.77-11.52l.79-1.99c-1.72-10.06-3.01-17.05-3.87-20.96-.86-3.9-1.82-8.31-2.88-13.21-1.86-8.61-4.24-16.35-7.15-23.24-.79,5.56-1.19,9.8-1.19,12.71s.26,5.17.79,6.75c-1.86,6.36-2.78,15.76-2.78,28.21v111.45c0,12.98.93,32.32,2.78,58.01,1.85,25.69,2.78,45.03,2.78,58.01l-2.78,3.18h-9.34l-1.19-3.18c.53-2.12.79-7.55.79-16.29l-4.57-141.64v-53.24l2.98-76.88-.4-8.54c0-3.44.89-5.73,2.68-6.85,1.79-1.12,4.1-1.69,6.95-1.69s5.33.83,7.45,2.48c2.12,1.66,3.18,4.27,3.18,7.85s.6,7.48,1.79,11.72c1.19,4.24,2.91,8.97,5.17,14.2,2.25,5.23,4,10,5.26,14.3,1.26,4.31,2.42,11.19,3.48,20.66,1.06,9.47,2.32,17.85,3.77,25.13,1.46,7.29,3.84,17.08,7.15,29.4,3.31,12.32,7.12,25.96,11.42,40.92,4.3,14.97,7.05,24.8,8.24,29.5,1.19,4.7,2.78,10.7,4.77,17.98,4.24,15.1,6.49,25.76,6.75,31.98,1.85,2.78,3.28,8.14,4.27,16.09s3.21,13.38,6.65,16.29c1.72-3.84,2.58-10.33,2.58-19.47l1.59-141.64-1.19-62.97,1.19-15.5c0-2.91-.4-4.63-1.19-5.17l1.19-3.38c0-16.69-.53-27.81-1.59-33.37,1.06-3.71,4.44-5.56,10.13-5.56,4.37,0,6.56,4.44,6.56,13.31-1.72,3.45-2.58,7.95-2.58,13.51l.4,13.71c0,5.83-.53,9.93-1.59,12.32l-1.19,128.53c0,2.52.26,6.16.79,10.93l-.79,1.79v51.25l.79,15.3c0,16.16-1.33,27.28-3.97,33.37v.79Z"/>
      </g>
      <g id="Layer_2-2" data-name="Layer 2-2">
        <g>
          <g>
            <g>
              <polygon class="cls-1" points="937.9 121.71 937.56 123.07 939.6 120.02 937.9 121.71"/>
              <path class="cls-1" d="M945.7,116.63s.34-1.7.68-2.37l-6.78,8.14c-.68,5.76,6.44-9.83,6.1-5.76Z"/>
              <path class="cls-1" d="M946.38,117.98c0,2.71,2.37-1.7,3.39-3.05-1.7,3.05-1.7-2.03-3.39,3.05Z"/>
              <path class="cls-1" d="M1038.93,201.73l3.73,1.02c-5.76-6.44,1.36-12.21-2.03-18.65h1.36c0-15.93-12.21-27.8-23.39-35.94.34,0,1.36-.68,1.7-.68-1.36,0-3.73,1.36-4.07.68.34-.68,1.36-1.02,2.03-1.02,2.37-6.44-8.81-3.73-6.78-8.14-1.02,0-3.05,1.7-4.07,3.39-8.81-5.76-19.33-11.19-31.19-12.21,0-1.02.68-2.37,1.7-4.41-12.88,4.41-19.66-3.05-28.48-8.14-1.36,2.37,0,3.05-2.03,5.09,1.7,4.41,7.8-3.73,8.48,1.7l-1.36,2.03c1.02,2.37,3.05-5.76,3.73-2.03,0,2.37-1.36,3.05-1.36,3.39,4.41.68,7.46,4.75,13.56,1.02-1.7,5.42,4.07,2.37,2.71,7.8,2.03-1.36,2.71-.34,4.75-3.39,11.19,9.49,26.11,13.56,34.24,25.09,12.88-.68,5.76,12.88,10.51,17.97h-1.02c3.05,1.7,5.42,5.09,4.07,8.14l4.75,2.37c-8.48,17.97-9.49,38.65-21.36,56.28-12.88,20.34-28.82,30.51-34.58,55.6-.68-.68-1.36-1.02-1.02-1.7-3.05,6.1-10.17,6.44-13.56,11.53l-.68-1.02c-8.14,15.93-26.44,12.88-38.99,23.05-18.31,1.02-38.31-4.07-56.28-13.22l1.36-1.7c-15.93-6.1-17.97-25.09-27.46-35.6-2.37-14.24-23.05-27.46-16.95-45.43,10.17-8.81-10.17-25.43,3.05-33.23,21.02-13.9,18.31-31.53,24.41-54.25,15.93-9.49,22.72-33.56,45.09-31.53,4.75-10.85,20,1.36,27.46-3.05l-1.02-2.37c5.09,6.78,4.41-12.54,9.15-1.7v.68c2.37,5.42,1.02-14.58,3.39-7.8v-3.05c1.7-1.36.68,3.39,2.37,4.07.68-.34-.68-5.42,1.02-4.07,2.03,11.87,5.09-3.39,6.78,10.51-1.02,0,2.03,5.09,0,8.14.68,1.36,3.73,0,3.05-5.42,0-6.1,1.02-11.53-1.7-16.27v4.41c-1.36-4.41-1.02-2.03-1.36-5.42-3.05,0-4.07-6.78-6.78-9.15v.34c-1.02,5.42-3.39,2.71-4.75,2.03l-1.02-2.37c-1.7-5.09-1.7,10.85-2.37,1.7-6.1,3.39-13.22,5.09-20,7.46,0,3.73-5.42,1.7-1.7,7.12-4.07-6.44-10.17-6.44-11.87-5.09,0-.68-.34-1.36,0-1.36-7.8-7.12-.34,9.83-8.81,1.02,3.39,7.8-7.46.68-4.41,10.51-1.36-1.36-2.37-2.71-2.71-4.07-5.76,3.05-13.9,4.75-18.65,7.8.68,8.48-11.53,5.09-8.14,15.26-3.73.68-11.19,1.7-11.19,8.14l-.68-1.36c-3.39,4.41-7.46,10.17-4.41,16.95-8.81-4.75-8.48-1.36-12.54-1.36,1.7,5.76-3.39,11.19-2.37,17.97-4.41-1.36-.34,4.75-6.44,2.37,4.41,19.66-4.41,33.56-15.93,49.84h-.34c3.39,2.37,11.19,5.42,15.6,7.8-.68,0-1.7,0-1.7-.34,1.02,2.71-5.42,5.42-4.41,8.48.68,2.03,0,1.92-2.03-.34,2.71,2.71-5.09,6.1,0,9.15h-1.7l2.71,2.37c-2.03,0-5.42.34-4.75-1.02,0,27.8,21.7,50.18,37.97,68.82l-2.03.68,6.1,1.02s-1.36,1.02-1.7,1.02c2.03,7.12,11.53,7.12,15.93,11.19-.68,1.02-2.71,2.03-2.37,3.39,7.12-2.37,2.71,10.85,10.85,1.36,0,.68-1.36,3.05-2.37,3.73,13.56,3.05,25.43,7.46,38.65,10.85,11.53-9.49,23.39-1.02,32.55-11.87v2.03c11.19-10.51,26.78-9.49,37.63-19.33,5.09-2.71,6.44-7.46,10.51-11.53l2.03,2.03c-.68-13.9,21.36-8.81,18.31-24.41l2.71,2.71c-3.73-4.75,5.42-3.73-3.39-9.15h3.39c-7.46-12.54,11.87-7.12,8.48-18.65l1.7,1.7c-.68-2.71-.68-5.76,2.03-6.1,0,.34,1.02.68,1.02,1.36,11.53-2.03,5.42-13.9,8.14-20.34l3.73,2.37c-3.39-5.09,3.39-9.49,2.37-14.92l2.03,1.02-2.03-3.05,4.07,1.02c2.03-6.1,0-12.54,0-18.65l1.36-.68Z"/>
              <path class="cls-1" d="M935.53,83.74s.68.34,1.02.68c0-.68-.68-.68-1.02-.68Z"/>
            </g>
            <g>
              <path class="cls-1" d="M814.15,58.31v-2.37l.68,6.78h0c0-3.05-.68-6.44-.34-4.75l-.34.34Z"/>
              <path class="cls-1" d="M843.31,64.42l3.39-1.36c-6.78,1.02-1.02-3.39-4.75-3.73h1.36c-.68-5.42-8.48-5.09-12.88-5.42l1.36-1.36c-1.02.68-3.05,2.37-2.71,2.03.68-.68,1.36-1.36,1.7-1.36,3.73-5.09-4.41,1.36-1.36-2.37-.68.34-2.37,2.37-3.39,3.73-2.71,0-5.76-.68-8.81,3.39,0-.68,1.02-2.37,1.7-4.41-4.75,9.15-3.05,5.42-4.07,3.73v5.42c0,2.71,0-6.1,0-1.7v2.03c-.34,2.37.34-6.1,0-2.71,0,2.03-.34,2.71-.34,3.05,0-.34-.34,1.36,1.36-4.41-1.7,5.42,0,0-1.36,5.42,1.02-2.03.68-1.36,2.03-4.75,0,3.05,4.41,0,6.44,2.37,9.15-5.76,0,3.73,3.73,2.71l-1.02.68c2.37-1.02,4.07-.68,3.05.34l4.41-1.36c-6.44,7.8.68,9.49-2.71,14.58-2.71,5.76-10.17,4.07,1.36,13.22-1.02-.34-1.36-.68-1.7-1.02,1.36,2.03-2.71,1.02-1.36,3.39l-1.02-.68c5.09,8.14-4.41,3.39-1.36,12.88-4.41,1.36-7.8,4.07-13.22,5.09l.68-2.03c-2.37,1.36-3.05-1.7-2.37-3.73.68-2.37,2.03-4.41-.34-5.76,3.39-5.42-14.24-4.07-9.49-10.51,9.15-5.42-13.56-2.71-3.73-8.14,14.92-9.15,3.73-8.14-4.75-16.61.68-.34,1.36-1.02,1.7-1.7,2.37-3.39-3.39-14.24,8.14-11.53-4.07-7.12,10.17,3.05,10.17,0l-1.7-2.03c6.1,5.42-6.1-9.83,2.37-1.02h0c4.41,4.75-8.48-10.85-3.73-5.76l-2.03-2.37s2.37,2.37,3.39,3.05c0-.34-3.39-4.07-2.03-3.05,8.14,9.15-.68-3.05,8.14,7.46,0,0,3.73,3.73,5.09,6.44,1.02,1.02,1.36,0-2.37-4.41-4.07-4.75-7.12-9.15-10.51-12.54l2.71,3.39c-3.05-3.39-1.36-1.7-3.73-4.07-1.02,0-5.42-4.75-7.46-6.44v.34c3.05,4.41.68,2.37,0,2.03l-1.7-1.7c-3.73-3.73,6.1,8.48,0,1.36,0,2.71-1.36,4.07-2.71,5.76,2.03,2.71-1.36,1.02,3.73,5.42-5.76-5.09-8.14-5.09-8.48-4.41-.34-.34-1.02-1.02-.68-1.02-8.14-5.42,5.76,7.12-4.07,0,6.44,5.42-3.73,0,3.73,6.78-1.7-1.02-3.05-2.03-4.07-3.05-1.7,1.7-5.76,2.37-7.46,4.41,5.42,5.09-5.42,3.39,3.39,8.81-2.03.34-6.1,1.36-5.09,3.39,0,.34.68.68,1.02,1.36h-1.02c0,2.03,0,5.09,6.44,7.12-9.83,0-7.8,1.02-11.19,1.7,4.41,1.7,3.05,4.41,7.46,6.1-4.41.68,2.03,1.36-4.41,2.03,13.22,3.73,9.83,8.48,2.03,15.6h-.34c3.73-.68,11.53-2.03,15.93-2.71-.68,0-1.7.34-1.7.34,1.36.34-4.41,3.05-3.05,3.39.9.23.23.34-2.03.34,3.05,0-4.41,3.05.68,2.37l-1.7.68h2.37c-2.03.34-5.09,1.36-4.75,1.02,1.02,7.8,11.53,8.48,15.6,17.97l-2.03,1.02s3.05,0,4.41-.34c-.68.68-1.36,1.02-1.7,1.36-.68,5.09,6.78,3.05,8.81,4.75-.34,1.02-1.7,2.71-1.7,4.07,4.07-4.75,2.71,8.81,6.1-3.05,0,.68,0,3.39-.68,4.41,7.46-3.05,10.85-4.41,16.27-4.07-1.7-11.19,6.44-4.41,3.73-13.56l1.36,1.7c-2.37-8.14,6.1-5.09,7.12-9.83,1.7-1.02,0-3.39.34-4.75l2.37,1.02c-8.81-6.1,11.19-3.05.68-9.15l3.73,1.02c-5.76-1.7,2.37-1.36-7.46-3.05h3.05c-12.88-3.39,6.44-2.71-2.03-5.76h2.37c-1.7-.34-3.39-1.02-1.02-1.7h1.7c9.15-2.37-1.36-4.07-1.02-6.1h4.41c-5.09-.68-1.02-3.39-3.39-4.07h2.03l-3.05-.34,4.07-1.02c0-2.03-4.07-2.37-5.09-3.73l.68-.34Z"/>
            </g>
            <path class="cls-1" d="M931.8,11.53l2.71-2.71c-5.76,4.07-3.05-2.37-6.1-1.02l.68-1.02c-2.71-3.39-9.15,0-13.56,1.02,0-.34.68-1.36,1.02-1.7-.68,1.02-2.03,3.05-2.03,2.71,0-.68.68-1.7,1.02-2.03,1.7-6.1-3.73,2.71-2.03-1.7-.34.68-1.36,3.05-2.03,4.75-2.71.68-5.09,1.7-5.09,6.78,0-1.02,0-2.37-.68-4.75,0,2.37,0,4.07.34,5.09,0,.68,0-.68-.34-1.02-.34-1.02-1.02-2.03-1.36-2.37h0s.68.68.68,1.36h0v.34h0c.34,1.02.68,2.03,1.02,2.71v1.02c0-.34,0,1.36,0-.68-.68,2.71,1.7-2.37,4.75-.34,6.44-8.81,2.03,3.39,5.76,1.7l-.68,1.02c2.03-1.7,3.73-2.37,3.73-.68l3.05-3.39c-2.71,9.15,3.39,6.78,1.02,11.53-1.02,2.03-3.73,3.05-4.07,3.73-.68,1.7.68,3.73,6.78,8.14-1.02,0-1.7-.34-2.03-.68,1.7,2.37-2.03,1.36,0,3.05h-1.02c5.76,4.41.68,4.75,1.02,7.46,0,1.02,0,2.03.68,4.07-4.75.34-8.14,3.39-12.21,8.81v-2.37c-4.07,6.78-6.1-5.42-9.15-2.37-.34-3.05-3.05,0-6.44,1.36-3.39,2.03-7.12,1.7-5.76-2.37,3.73-5.42.68-3.73-2.71-3.39-3.05.34-6.1,0-1.7-4.07,15.26-11.87,5.09-7.46-4.07-16.27,6.44-3.73-6.78-12.21,6.1-13.56-6.44-4.75,10.51-1.36,9.15-4.07l-2.37-1.02c7.8,2.37-9.49-6.44,1.7-2.03h.34c5.76,2.37-12.54-6.78-5.76-4.07l-2.71-1.36s3.05,1.36,4.41,1.36c0,0-4.75-2.37-3.05-2.03,10.85,5.42-1.7-2.37,10.51,3.73,0,0,5.09,2.03,7.12,3.73,1.36.34,1.02-.34-4.07-3.05-5.42-3.05-10.17-5.76-14.58-7.46l4.07,2.03c-4.07-2.03-2.03-1.02-5.09-2.37-1.02.34-6.78-2.37-9.49-3.05h.34c4.75,2.71,1.36,2.03.68,2.03l-2.37-1.02c-4.75-2.03,8.81,5.42.68,1.36,1.36,2.71,0,4.41,0,6.44,3.05,1.36-.68,1.36,5.42,3.39-7.12-2.37-9.49-1.36-9.49-.68-.68,0-1.36-.68-1.02-.68-9.49-2.03,8.14,4.07-3.39,1.36,7.8,2.71-3.05,1.02,6.1,4.41-1.7-.34-3.39-1.02-4.75-1.36-.68,1.7-4.07,3.05-5.09,4.41,6.78,3.05-4.07,2.71,5.76,5.76-2.37.34-6.78,1.36-3.05,3.39h-1.36s.34,4.41,6.78,6.1c-9.83,0-7.8,1.36-11.19,2.37,4.41,1.36,3.05,4.75,7.12,6.1-4.41,1.02,2.03,1.36-4.41,2.71,13.22,3.39,9.15,8.48,5.09,20.68h-.34c3.39-1.36,10.17-5.42,13.9-8.14-.34.34-1.36,1.02-1.36,1.02,1.36,0-3.05,5.09-1.36,5.09,1.13,0,.57.45-1.7,1.36,2.71-1.36-2.37,5.42,2.03,2.71l-1.02,1.36,2.03-1.36s-3.73,4.07-3.39,3.39c6.1,9.15,20.34,3.39,27.46,3.39l-.68,2.03,2.03-4.07v2.03c2.03,3.39,4.41-3.39,6.1-3.05v4.41c.68-6.44,3.73,7.12,2.71-5.76,0,.68.68,3.39.68,4.41,3.39-5.76,7.46-8.48,11.53-7.46-1.7-9.49,4.07-5.42,4.07-9.83,0-.68,0-1.7-1.02-3.05l1.7,1.7c-3.05-7.8,4.41-6.44,4.41-11.53,1.36-1.36-1.02-3.39-.68-4.75l2.71.68c-9.83-4.41,10.51-3.73-.68-8.48l3.73.68c-5.76-1.02,2.37-1.7-7.8-2.37h3.05c-12.88-2.03,6.1-4.07-2.71-5.42h2.37c-2.03-.68-3.39-.68-1.36-1.7h1.7c8.81-4.41-2.03-4.07-2.37-5.42l4.07-1.7c-5.09,1.36-1.7-2.71-4.75-2.37l1.7-1.02-2.71,1.02,3.39-2.37c-1.02-1.7-5.09-.68-6.78-1.36v.68Z"/>
            <g>
              <path class="cls-1" d="M984.69,39.67c0,2.37,0-2.37.34-4.07,0,3.73,0-1.02-.34,4.07Z"/>
              <path class="cls-1" d="M1012.15,45.77l3.73-.68c-6.78,0-.68-3.39-4.07-4.07h1.36c0-5.09-7.8-5.76-11.87-6.1,0,0,1.36-1.02,1.7-1.02-1.02.68-3.05,2.03-3.05,1.7.68-.68,1.36-1.02,1.7-1.36,4.07-4.75-4.41,1.02-1.02-2.37-.68,0-2.37,2.03-3.73,3.73-2.71,0-5.42-.68-8.81,3.05.34-.68,1.02-2.37,2.03-4.41-5.42,8.81-3.39,5.09-4.41,3.39q0,2.71-.34,5.42c-.34,3.39,1.02-6.44.34-1.7v2.37s.68-6.44,0-3.05c-.34,2.03-.68,3.05-.68,3.39.34-1.02,0,0,2.03-4.41-2.03,5.09,0,0-1.7,5.09,1.02-2.03.68-1.36,2.37-4.75-.34,3.05,4.07,0,5.42,2.03,9.49-5.42,0,3.05,3.05,2.37h-1.02c2.37,0,4.07,0,3.05,1.02l4.41-1.02c-7.8,6.44-1.02,8.48-5.09,13.22-1.36,2.03-4.41,4.41-5.09,5.42-.68.68,1.02,1.36,6.44,7.12-1.02-.68-1.36-1.02-1.7-1.36,1.36,2.37-2.03.34-1.02,2.71l-.68-.68c4.07,8.81-4.07,1.02-3.05,10.51-4.75,0-8.81,2.37-13.9,4.75v-2.03c-1.7,2.03-3.73,0-4.41-2.37-.68-2.37,0-4.41-2.03-3.73,1.02-2.37-1.7-1.02-5.09-2.03-3.39-.68-6.44-3.05-3.05-5.42,10.17-1.36-11.53-7.46,0-8.48,16.95,0,8.14-6.1,1.7-15.6,7.12-1.36-3.39-13.22,9.15-10.85-5.09-6.1,10.17,1.7,9.83-1.36l-2.03-1.36c6.78,4.07-7.8-8.14,2.03-1.36h.34c5.09,3.73-10.51-9.15-4.75-5.09l-2.37-2.03s2.71,2.03,3.73,2.37c0-.34-4.07-3.39-2.71-2.71,9.49,7.46-1.36-2.71,9.49,5.76,0,0,4.41,3.05,6.1,5.42,1.36.68,1.02,0-3.39-4.07-4.75-4.07-8.48-7.8-12.54-10.51l3.39,3.05c-3.73-2.71-1.7-1.36-4.41-3.39-1.02,0-6.1-3.73-8.48-5.09h.34c4.07,3.73,1.02,2.03,0,2.03l-2.03-1.36c-4.41-3.05,7.46,7.12.68,1.36.68,2.71-.34,4.07-1.36,5.76,2.71,2.03-1.02,1.02,4.41,4.41-6.44-4.07-8.81-3.73-8.81-3.39-.68-.34-1.36-1.02-1.02-.68-8.81-4.41,6.78,6.1-3.73,0,7.12,4.75-3.39,0,4.75,5.76-1.7-1.02-3.05-1.7-4.41-2.71-1.02,1.36-4.75,1.36-5.76,2.71,5.76,4.75-4.41,1.02,4.07,6.78-2.37,0-6.78-1.02-3.73,2.03l-1.02-.68s-.34,3.39,5.09,6.78c-9.15-3.73-7.46-2.37-10.51-3.05,3.73,2.71,1.7,3.73,5.09,6.78-4.41-1.36,1.36,2.03-4.75,0,10.17,8.81,4.75,10.85-5.42,16.27h-.34c3.39,1.02,11.19,2.37,15.93,3.39h-1.7c1.36,1.02-5.42,1.7-4.07,2.71h-2.03c3.05.68-5.09,2.37,0,3.39h-1.7l2.37.68c-2.03,0-5.42.68-4.75,0-.68,5.42,3.73,11.53,9.15,14.92,5.76,3.73,11.19,4.41,15.6,6.78l-1.02,1.7s2.03-2.03,3.05-3.05c0,1.02-.68,1.7-.68,2.03,1.7,4.07,5.42-1.36,6.78-.34,0,1.02-.68,3.05,0,4.41,1.7-5.76,2.71,7.8,3.39-4.41v4.41c4.07-4.07,7.46-4.41,11.19-3.39-.34-11.19,6.1-2.71,5.76-11.87l1.02,2.03c-.34-7.8,7.46-2.37,9.49-7.12,1.7-.68,0-3.39.34-4.75l2.37,1.36c-8.14-6.78,11.19-1.7,1.02-8.81l3.73,1.36c-5.42-2.03,2.37-1.36-7.46-3.39h3.05c-12.54-3.73,6.44-2.03-1.7-5.42h2.37c-1.7-.34-3.05-1.02-1.02-1.36h1.7c9.49-1.02-.68-4.07-.34-5.76h4.41c-5.09-.68-.34-2.71-3.05-3.73h2.03l-3.05-.34h4.07c0-2.37-3.73-3.39-4.41-4.75l-.34,1.02Z"/>
            </g>
          </g>
          <g>
            <path class="cls-1" d="M1069.45,118.66s-.34-.68-.68-1.02c1.02,1.7,0,.34.68.68h0v.34Z"/>
            <path class="cls-1" d="M1069.45,119s.68,1.36-1.02-1.7c.68,1.36,0,0,1.02,1.7Z"/>
            <path class="cls-1" d="M1089.45,112.9l3.05-2.03c-6.1,3.05-1.7-2.37-4.75-1.36l1.02-1.02c-1.36-3.73-8.48-.68-11.53,1.02,0-.34.68-1.36,1.02-1.7-.68,1.02-1.7,3.39-1.7,3.05.34-.68.68-1.7,1.02-2.03,1.7-6.1-2.71,3.05-1.7-1.36-.34.68-1.02,3.05-1.7,5.09-1.7,1.02-3.73,2.03-3.73,7.12,0-1.02,0-2.37-.34-4.75.68,10.51,0,3.39,0,4.41h0v.68h0s.34,1.7,0,1.02v1.36c0-.68,0,1.7,0-1.36,0,2.71,1.36-2.37,2.37-1.36,5.76-9.15,0,2.37,2.71,0l-.68.68c2.03-1.7,3.39-2.37,2.71-1.02l3.39-2.71c-5.09,8.14,1.02,6.1-1.7,9.83-1.36,2.37-6.1,2.71-3.05,3.73,1.7.68,3.73,1.7,7.46,3.73-1.02-.34-1.7-.68-2.03-.68,2.03,1.7-2.37.68-.34,2.03l-1.02-.68c7.12,6.44-3.05,1.7,2.03,9.49-3.39,1.02-5.76,3.05-8.81,6.78v-2.03c-3.05,5.09-6.1-5.76-8.14-2.71-.68-2.71-1.36.34-4.41,2.03-2.71,1.7-6.44,1.7-4.41-1.7,4.07-3.39,1.36-2.37-2.03-2.71-3.05,0-6.44-1.36-1.02-3.05,15.6-5.09,5.42-6.1-3.73-12.54,6.1-2.37-7.46-9.83,5.09-10.51-6.78-4.07,10.17-.34,8.48-2.71l-2.37-1.02c7.8,2.37-9.83-5.42,1.36-1.36h.34c5.76,2.37-12.88-6.1-6.1-3.39l-2.71-1.36s3.05,1.36,4.41,1.36c0,0-5.09-2.37-3.39-1.7,11.19,4.75-2.03-2.03,10.51,3.39,0,0,5.09,2.03,7.46,3.39,1.36.34,1.02,0-4.41-2.71-5.42-2.71-10.51-5.09-14.92-6.78l4.07,2.03c-4.07-1.7-2.03-1.02-5.09-2.03-.68,0-6.78-2.37-9.49-3.05h.34c4.75,2.37,1.7,1.7,1.02,1.7l-2.37-1.02c-4.75-2.03,9.15,4.75,1.02,1.02,1.36,2.03.68,3.73.34,5.09,3.05,1.36-.68,1.02,5.76,3.05-7.12-2.03-9.49-1.7-9.15-1.02-.68,0-1.36-.34-1.02-.34-9.49-2.03,8.14,3.73-3.39,1.02,8.14,2.37-3.05.68,6.44,4.07-1.7-.34-3.39-1.02-4.75-1.36-.68,1.36-4.07,2.37-4.75,3.39,7.12,2.71-3.73,2.03,6.1,4.75-2.37,0-6.78,1.02-2.71,2.71h-1.36s.68,2.71,7.12,4.07c-9.83-.68-7.8,0-11.19,0,4.41,1.36,3.05,3.05,7.12,4.75-4.41,0,2.03,1.36-4.75,1.02,12.54,4.75,8.14,7.12,1.36,17.29h-.34c3.73,0,11.53-2.37,15.93-3.73-.34,0-1.36.68-1.36.68,1.36,0-3.73,4.07-2.37,4.41q-1.02.68-2.03,1.02c3.05-.68-3.05,4.75,2.03,3.05l-1.36,1.02,2.37-1.02s-4.07,3.39-4.07,2.71c3.05,5.42,10.51,7.46,15.93,6.44,5.09-1.02,8.14-3.39,11.87-3.05v2.03l1.02-3.73v2.03c2.03,3.39,3.39-3.05,4.75-2.37,0,1.02.34,3.05,1.02,4.41,0-6.1,4.07,6.78,1.36-5.09,0,.68,1.02,3.05,1.36,4.07,2.37-5.09,5.09-5.76,9.49-6.1-4.07-10.17,4.75-4.07,0-11.87l1.7,1.36c-3.73-6.78,5.09-3.73,5.42-7.8,1.36-.68-.68-2.71-.34-3.73l2.71.68c-5.76-3.05-1.02-2.71,1.36-4.07,1.36-.68,2.03-2.03-2.71-3.05h3.73c-5.76,0,2.03-1.02-8.14-1.02h3.05c-13.9-1.36,5.76-3.05-3.39-4.07h2.37c-2.03-.34-3.73-.68-1.7-1.36h1.7c8.81-3.39-2.37-3.05-2.37-4.07l4.07-1.36c-5.09,1.02-1.36-2.03-4.07-2.03l2.03-1.02-2.71,1.02,3.73-2.03s-4.41-.68-5.42-1.36h-1.02Z"/>
          </g>
        </g>
      </g>
    </g>
  </g>
</svg>