<?xml version="1.0" encoding="UTF-8"?>
<svg id="Layer_2" data-name="Layer 2" xmlns="http://www.w3.org/2000/svg" viewBox="0 0 9.68 10.21">
  <defs>
    <style>
      .cls-1 {
        fill: #fef7ec;
        stroke-width: 0px;
      }
    </style>
  </defs>
  <g id="Layer_2-2" data-name="Layer 2">
    <g id="Layer_2-2" data-name="Layer 2-2">
      <g>
        <g>
          <g>
            <polygon class="cls-1" points="4.86 3.59 4.85 3.63 4.91 3.54 4.86 3.59"/>
            <path class="cls-1" d="M5.09,3.44s.01-.05.02-.07l-.2.24c-.02.17.19-.29.18-.17Z"/>
            <path class="cls-1" d="M5.11,3.48c0,.08.07-.05.1-.09-.05.09-.05-.06-.1.09Z"/>
            <path class="cls-1" d="M7.84,5.95l.11.03c-.17-.19.04-.36-.06-.55h.04c0-.47-.36-.82-.69-1.06.01,0,.04-.02.05-.02-.04,0-.11.04-.12.02.01-.02.04-.03.06-.03.07-.19-.26-.11-.2-.24-.03,0-.09.05-.12.1-.26-.17-.57-.33-.92-.36,0-.03.02-.07.05-.13-.38.13-.58-.09-.84-.24-.04.07,0,.09-.06.15.05.13.23-.11.25.05l-.04.06c.03.07.09-.17.11-.06,0,.07-.04.09-.04.1.13.02.22.14.4.03-.05.16.12.07.08.23.06-.04.08-.01.14-.1.33.28.77.4,1.01.74.38-.02.17.38.31.53h-.03c.09.05.16.15.12.24l.14.07c-.25.53-.28,1.14-.63,1.66-.38.6-.85.9-1.02,1.64-.02-.02-.04-.03-.03-.05-.09.18-.3.19-.4.34l-.02-.03c-.24.47-.78.38-1.15.68-.54.03-1.13-.12-1.66-.39l.04-.05c-.47-.18-.53-.74-.81-1.05-.07-.42-.68-.81-.5-1.34.3-.26-.3-.75.09-.98.62-.41.54-.93.72-1.6.47-.28.67-.99,1.33-.93.14-.32.59.04.81-.09l-.03-.07c.15.2.13-.37.27-.05v.02c.07.16.03-.43.1-.23v-.09c.05-.04.02.1.07.12.02,0-.02-.16.03-.12.06.35.15-.1.2.31-.03,0,.06.15,0,.24.02.04.11,0,.09-.16,0-.18.03-.34-.05-.48v.13c-.04-.13-.03-.06-.04-.16-.09,0-.12-.2-.2-.27h0c-.03.17-.1.09-.14.07l-.03-.07c-.05-.15-.05.32-.07.05-.18.1-.39.15-.59.22,0,.11-.16.05-.05.21-.12-.19-.3-.19-.35-.15,0-.02,0-.04,0-.04-.23-.21,0,.29-.26.03.1.23-.22.02-.13.31-.04-.04-.07-.08-.08-.12-.17.09-.41.14-.55.23.02.25-.34.15-.24.45-.11.02-.33.05-.33.24l-.02-.04c-.1.13-.22.3-.13.5-.26-.14-.25-.04-.37-.04.05.17-.1.33-.07.53-.13-.04,0,.14-.19.07.13.58-.13.99-.47,1.47h0c.1.07.33.16.46.23-.02,0-.05,0-.05-.01.03.08-.16.16-.13.25.02.06,0,.06-.06-.01.08.08-.15.18,0,.27h-.05l.08.07c-.06,0-.16.01-.14-.03,0,.82.64,1.48,1.12,2.03l-.06.02.18.03s-.04.03-.05.03c.06.21.34.21.47.33-.02.03-.08.06-.07.1.21-.07.08.32.32.04,0,.02-.04.09-.07.11.4.09.75.22,1.14.32.34-.28.69-.03.96-.35v.06c.33-.31.79-.28,1.11-.57.15-.08.19-.22.31-.34l.06.06c-.02-.41.63-.26.54-.72l.08.08c-.11-.14.16-.11-.1-.27h.1c-.22-.37.35-.21.25-.55l.05.05c-.02-.08-.02-.17.06-.18,0,.01.03.02.03.04.34-.06.16-.41.24-.6l.11.07c-.1-.15.1-.28.07-.44l.06.03-.06-.09.12.03c.06-.18,0-.37,0-.55l.04-.02Z"/>
            <path class="cls-1" d="M4.79,2.47s.02,0,.03.02c0-.02-.02-.02-.03-.02Z"/>
          </g>
          <g>
            <path class="cls-1" d="M1.21,1.72v-.07l.02.2h0c0-.09-.02-.19,0-.14h0Z"/>
            <path class="cls-1" d="M2.07,1.9l.1-.04c-.2.03-.03-.1-.14-.11h.04c-.02-.16-.25-.15-.38-.16l.04-.04s-.09.07-.08.06c.02-.02.04-.04.05-.04.11-.15-.13.04-.04-.07-.02,0-.07.07-.1.11-.08,0-.17-.02-.26.1,0-.02.03-.07.05-.13-.14.27-.09.16-.12.11v.16c0,.08,0-.18,0-.05v.06c0,.07,0-.18,0-.08,0,.06,0,.08,0,.09,0,0,0,.04.04-.13-.05.16,0,0-.04.16.03-.06.02-.04.06-.14,0,.09.13,0,.19.07.27-.17,0,.11.11.08l-.03.02c.07-.03.12-.02.09,0l.13-.04c-.19.23.02.28-.08.43-.08.17-.3.12.04.39-.03,0-.04-.02-.05-.03.04.06-.08.03-.04.1l-.03-.02c.15.24-.13.1-.04.38-.13.04-.23.12-.39.15l.02-.06c-.07.04-.09-.05-.07-.11.02-.07.06-.13,0-.17.1-.16-.42-.12-.28-.31.27-.16-.4-.08-.11-.24.44-.27.11-.24-.14-.49.02,0,.04-.03.05-.05.07-.1-.1-.42.24-.34-.12-.21.3.09.3,0l-.05-.06c.18.16-.18-.29.07-.03h0c.13.14-.25-.32-.11-.17l-.06-.07s.07.07.1.09c0,0-.1-.12-.06-.09.24.27-.02-.09.24.22,0,0,.11.11.15.19.03.03.04,0-.07-.13-.12-.14-.21-.27-.31-.37l.08.1c-.09-.1-.04-.05-.11-.12-.03,0-.16-.14-.22-.19h0c.09.14.02.08,0,.07l-.05-.05c-.11-.11.18.25,0,.04,0,.08-.04.12-.08.17.06.08-.04.03.11.16-.17-.15-.24-.15-.25-.13,0,0-.03-.03-.02-.03-.24-.16.17.21-.12,0,.19.16-.11,0,.11.2-.05-.03-.09-.06-.12-.09-.05.05-.17.07-.22.13.16.15-.16.1.1.26-.06,0-.18.04-.15.1,0,0,.02.02.03.04h-.03c0,.06,0,.15.19.21-.29,0-.23.03-.33.05.13.05.09.13.22.18-.13.02.06.04-.13.06.39.11.29.25.06.46h-.01c.11-.02.34-.06.47-.08-.02,0-.05,0-.05,0,.04,0-.13.09-.09.1.03,0,0,.01-.06,0,.09,0-.13.09.02.07l-.05.02h.07c-.06,0-.15.04-.14.03.03.23.34.25.46.53l-.06.03s.09,0,.13,0c-.02.02-.04.03-.05.04-.02.15.2.09.26.14,0,.03-.05.08-.05.12.12-.14.08.26.18-.09,0,.02,0,.1-.02.13.22-.09.32-.13.48-.12-.05-.33.19-.13.11-.4l.04.05c-.07-.24.18-.15.21-.29.05-.03,0-.1,0-.14l.07.03c-.26-.18.33-.09.02-.27l.11.03c-.17-.05.07-.04-.22-.09h.09c-.38-.1.19-.08-.06-.17h.07s-.1-.03-.03-.05h.05c.27-.07-.04-.12-.03-.18h.13c-.15-.02-.03-.1-.1-.12h.06-.09s.12-.04.12-.04c0-.06-.12-.07-.15-.11h.02Z"/>
          </g>
          <path class="cls-1" d="M4.68.34l.08-.08c-.17.12-.09-.07-.18-.03l.02-.03c-.08-.1-.27,0-.4.03,0,0,.02-.04.03-.05-.02.03-.06.09-.06.08,0-.02.02-.05.03-.06.05-.18-.11.08-.06-.05-.01.02-.04.09-.06.14-.08.02-.15.05-.15.2,0-.03,0-.07-.02-.14,0,.07,0,.12,0,.15,0,.02,0-.02,0-.03,0-.03-.03-.06-.04-.07h0s.02.02.02.04h0s.02.07.03.09v.03s0,.04,0-.02c-.02.08.05-.07.14,0,.19-.26.06.1.17.05l-.02.03c.06-.05.11-.07.11-.02l.09-.1c-.08.27.1.2.03.34-.03.06-.11.09-.12.11-.02.05.02.11.2.24-.03,0-.05,0-.06-.02.05.07-.06.04,0,.09h-.03c.17.13.02.14.03.22,0,.03,0,.06.02.12-.14,0-.24.1-.36.26v-.07c-.12.2-.18-.16-.27-.07,0-.09-.09,0-.19.04-.1.06-.21.05-.17-.07.11-.16.02-.11-.08-.1-.09,0-.18,0-.05-.12.45-.35.15-.22-.12-.48.19-.11-.2-.36.18-.4-.19-.14.31-.04.27-.12l-.07-.03c.23.07-.28-.19.05-.06h0c.17.07-.37-.2-.17-.12l-.08-.04s.09.04.13.04c0,0-.14-.07-.09-.06.32.16-.05-.07.31.11,0,0,.15.06.21.11.04,0,.03,0-.12-.09-.16-.09-.3-.17-.43-.22l.12.06c-.12-.06-.06-.03-.15-.07-.03,0-.2-.07-.28-.09h0c.14.08.04.06.02.06l-.07-.03c-.14-.06.26.16.02.04.04.08,0,.13,0,.19.09.04-.02.04.16.1-.21-.07-.28-.04-.28-.02-.02,0-.04-.02-.03-.02-.28-.06.24.12-.1.04.23.08-.09.03.18.13-.05,0-.1-.03-.14-.04-.02.05-.12.09-.15.13.2.09-.12.08.17.17-.07,0-.2.04-.09.1h-.04s0,.13.2.18c-.29,0-.23.04-.33.07.13.04.09.14.21.18-.13.03.06.04-.13.08.39.1.27.25.15.61h0c.1-.04.3-.16.41-.24,0,0-.04.03-.04.03.04,0-.09.15-.04.15.03,0,.02.01-.05.04.08-.04-.07.16.06.08l-.03.04.06-.04s-.11.12-.1.1c.18.27.6.1.81.1l-.02.06.06-.12v.06c.06.1.13-.1.18-.09v.13c.02-.19.11.21.08-.17,0,.02.02.1.02.13.1-.17.22-.25.34-.22-.05-.28.12-.16.12-.29,0-.02,0-.05-.03-.09l.05.05c-.09-.23.13-.19.13-.34.04-.04-.03-.1-.02-.14l.08.02c-.29-.13.31-.11-.02-.25l.11.02c-.17-.03.07-.05-.23-.07h.09c-.38-.06.18-.12-.08-.16h.07c-.06-.02-.1-.02-.04-.05h.05c.26-.13-.06-.12-.07-.16l.12-.05c-.15.04-.05-.08-.14-.07l.05-.03-.08.03.1-.07c-.03-.05-.15-.02-.2-.04v.02Z"/>
          <g>
            <path class="cls-1" d="M6.24,1.17c0,.07,0-.07.01-.12,0,.11,0-.03-.01.12Z"/>
            <path class="cls-1" d="M7.05,1.35l.11-.02c-.2,0-.02-.1-.12-.12h.04c0-.15-.23-.17-.35-.18,0,0,.04-.03.05-.03-.03.02-.09.06-.09.05.02-.02.04-.03.05-.04.12-.14-.13.03-.03-.07-.02,0-.07.06-.11.11-.08,0-.16-.02-.26.09.01-.02.03-.07.06-.13-.16.26-.1.15-.13.1q0,.08-.01.16c-.01.1.03-.19.01-.05v.07s.02-.19,0-.09c-.01.06-.02.09-.02.1.01-.03,0,0,.06-.13-.06.15,0,0-.05.15.03-.06.02-.04.07-.14-.01.09.12,0,.16.06.28-.16,0,.09.09.07h-.03c.07,0,.12,0,.09.03l.13-.03c-.23.19-.03.25-.15.39-.04.06-.13.13-.15.16-.02.02.03.04.19.21-.03-.02-.04-.03-.05-.04.04.07-.06,0-.03.08l-.02-.02c.12.26-.12.03-.09.31-.14,0-.26.07-.41.14v-.06c-.05.06-.11,0-.13-.07s0-.13-.06-.11c.03-.07-.05-.03-.15-.06-.1-.02-.19-.09-.09-.16.3-.04-.34-.22,0-.25.5,0,.24-.18.05-.46.21-.04-.1-.39.27-.32-.15-.18.3.05.29-.04l-.06-.04c.2.12-.23-.24.06-.04h.01c.15.11-.31-.27-.14-.15l-.07-.06s.08.06.11.07c0,0-.12-.1-.08-.08.28.22-.04-.08.28.17,0,0,.13.09.18.16.04.02.03,0-.1-.12-.14-.12-.25-.23-.37-.31l.1.09c-.11-.08-.05-.04-.13-.1-.03,0-.18-.11-.25-.15h.01c.12.11.03.06,0,.06l-.06-.04c-.13-.09.22.21.02.04.02.08-.01.12-.04.17.08.06-.03.03.13.13-.19-.12-.26-.11-.26-.1-.02,0-.04-.03-.03-.02-.26-.13.2.18-.11,0,.21.14-.1,0,.14.17-.05-.03-.09-.05-.13-.08-.03.04-.14.04-.17.08.17.14-.13.03.12.2-.07,0-.2-.03-.11.06l-.03-.02s-.01.1.15.2c-.27-.11-.22-.07-.31-.09.11.08.05.11.15.2-.13-.04.04.06-.14,0,.3.26.14.32-.16.48h-.01c.1.03.33.07.47.1h-.05s-.16.05-.12.08h-.06c.09.02-.15.07,0,.1h-.05l.07.02c-.06,0-.16.02-.14,0-.02.16.11.34.27.44.17.11.33.13.46.2l-.03.05s.06-.06.09-.09c0,.03-.02.05-.02.06.05.12.16-.04.2,0,0,.03-.02.09,0,.13.05-.17.08.23.1-.13v.13c.12-.12.22-.13.33-.1-.01-.33.18-.08.17-.35l.03.06c-.01-.23.22-.07.28-.21.05-.02,0-.1.01-.14l.07.04c-.24-.2.33-.05.03-.26l.11.04c-.16-.06.07-.04-.22-.1h.09c-.37-.11.19-.06-.05-.16h.07c-.05,0-.09-.03-.03-.04h.05c.28-.03-.02-.12-.01-.17h.13c-.15-.02-.01-.08-.09-.11h.06-.09s.12,0,.12,0c0-.07-.11-.1-.13-.14v.03Z"/>
          </g>
        </g>
        <g>
          <path class="cls-1" d="M8.74,3.5s-.01-.02-.02-.03c.03.05,0,0,.02.02h0Z"/>
          <path class="cls-1" d="M8.74,3.51s.02.04-.03-.05c.02.04,0,0,.03.05Z"/>
          <path class="cls-1" d="M9.33,3.33l.09-.06c-.18.09-.05-.07-.14-.04l.03-.03c-.04-.11-.25-.02-.34.03,0,0,.02-.04.03-.05-.02.03-.05.1-.05.09.01-.02.02-.05.03-.06.05-.18-.08.09-.05-.04-.01.02-.03.09-.05.15-.05.03-.11.06-.11.21,0-.03,0-.07-.01-.14.02.31,0,.1,0,.13h0v.02h0s.01.05,0,.03v.04s0,.05,0-.04c0,.08.04-.07.07-.04.17-.27,0,.07.08,0l-.02.02c.06-.05.1-.07.08-.03l.1-.08c-.15.24.03.18-.05.29-.04.07-.18.08-.09.11.05.02.11.05.22.11-.03-.01-.05-.02-.06-.02.06.05-.07.02-.01.06l-.03-.02c.21.19-.09.05.06.28-.1.03-.17.09-.26.2v-.06c-.09.15-.18-.17-.24-.08-.02-.08-.04.01-.13.06-.08.05-.19.05-.13-.05.12-.1.04-.07-.06-.08-.09,0-.19-.04-.03-.09.46-.15.16-.18-.11-.37.18-.07-.22-.29.15-.31-.2-.12.3,0,.25-.08l-.07-.03c.23.07-.29-.16.04-.04h.01c.17.07-.38-.18-.18-.1l-.08-.04s.09.04.13.04c0,0-.15-.07-.1-.05.33.14-.06-.06.31.1,0,0,.15.06.22.1.04,0,.03,0-.13-.08s-.31-.15-.44-.2l.12.06c-.12-.05-.06-.03-.15-.06-.02,0-.2-.07-.28-.09h.01c.14.07.05.05.03.05l-.07-.03c-.14-.06.27.14.03.03.04.06.02.11.01.15.09.04-.02.03.17.09-.21-.06-.28-.05-.27-.03-.02,0-.04,0-.03,0-.28-.06.24.11-.1.03.24.07-.09.02.19.12-.05,0-.1-.03-.14-.04-.02.04-.12.07-.14.1.21.08-.11.06.18.14-.07,0-.2.03-.08.08h-.04s.02.08.21.12c-.29-.02-.23,0-.33,0,.13.04.09.09.21.14-.13,0,.06.04-.14.03.37.14.24.21.04.51h-.01c.11,0,.34-.07.47-.11-.01,0-.04.02-.04.02.04,0-.11.12-.07.13t-.06.03c.09-.02-.09.14.06.09l-.04.03.07-.03s-.12.1-.12.08c.09.16.31.22.47.19.15-.03.24-.1.35-.09v.06l.03-.11v.06c.06.1.1-.09.14-.07,0,.03.01.09.03.13,0-.18.12.2.04-.15,0,.02.03.09.04.12.07-.15.15-.17.28-.18-.12-.3.14-.12,0-.35l.05.04c-.11-.2.15-.11.16-.23.04-.02-.02-.08-.01-.11l.08.02c-.17-.09-.03-.08.04-.12.04-.02.06-.06-.08-.09h.11c-.17,0,.06-.03-.24-.03h.09c-.41-.04.17-.09-.1-.12h.07c-.06-.01-.11-.02-.05-.04h.05c.26-.1-.07-.09-.07-.12l.12-.04c-.15.03-.04-.06-.12-.06l.06-.03-.08.03.11-.06s-.13-.02-.16-.04h-.03Z"/>
        </g>
      </g>
    </g>
  </g>
</svg>